<svg width="170" height="170" viewBox="0 0 170 170" fill="none" xmlns="http://www.w3.org/2000/svg">
<path fill-rule="evenodd" clip-rule="evenodd" d="M85 0C38.0375 0 0 38.9996 0 87.15C0 125.714 24.3313 158.286 58.1188 169.834C62.3688 170.596 63.9625 167.982 63.9625 165.694C63.9625 163.624 63.8563 156.761 63.8563 149.462C42.5 153.493 36.975 144.124 35.275 139.222C34.3188 136.717 30.175 128.982 26.5625 126.912C23.5875 125.278 19.3375 121.247 26.4562 121.138C33.15 121.03 37.9313 127.457 39.525 130.071C47.175 143.253 59.3937 139.549 64.2813 137.261C65.025 131.596 67.2563 127.784 69.7 125.605C50.7875 123.426 31.025 115.909 31.025 82.5746C31.025 73.097 34.3188 65.2535 39.7375 59.153C38.8875 56.9743 35.9125 48.0414 40.5875 36.0583C40.5875 36.0583 47.7062 33.7706 63.9625 44.9912C70.7625 43.0303 77.9875 42.0499 85.2125 42.0499C92.4375 42.0499 99.6625 43.0303 106.463 44.9912C122.719 33.6617 129.838 36.0583 129.838 36.0583C134.513 48.0414 131.538 56.9743 130.688 59.153C136.106 65.2535 139.4 72.9881 139.4 82.5746C139.4 116.018 119.531 123.426 100.619 125.605C103.7 128.328 106.356 133.557 106.356 141.728C106.356 153.384 106.25 162.753 106.25 165.694C106.25 167.982 107.844 170.705 112.094 169.834C128.968 163.992 143.63 152.873 154.018 138.041C164.405 123.209 169.995 105.41 170 87.15C170 38.9996 131.963 0 85 0Z" fill="#1991EB"/>
</svg>
