<svg width="176" height="119" viewBox="0 0 176 119" fill="none" xmlns="http://www.w3.org/2000/svg">
<path d="M158.4 103.674H140.8V38.9463L88 66.6867L35.2 38.9463V103.674H17.6V14.9046H28.16L88 46.3437L147.84 14.9046H158.4V103.674ZM158.4 0.10968H17.6C7.832 0.10968 0 6.69341 0 14.9046V103.674C0 107.598 1.85428 111.361 5.15492 114.136C8.45556 116.91 12.9322 118.469 17.6 118.469H158.4C163.068 118.469 167.544 116.91 170.845 114.136C174.146 111.361 176 107.598 176 103.674V14.9046C176 10.9807 174.146 7.21759 170.845 4.44301C167.544 1.66842 163.068 0.10968 158.4 0.10968V0.10968Z" fill="#1991EB"/>
</svg>
