<svg width="170" height="170" viewBox="0 0 170 170" fill="none" xmlns="http://www.w3.org/2000/svg">
<path d="M111.562 85C111.562 92.0448 108.764 98.8011 103.783 103.783C98.8011 108.764 92.0448 111.562 85 111.562C77.9552 111.562 71.1989 108.764 66.2175 103.783C61.236 98.8011 58.4375 92.0448 58.4375 85C58.4375 83.4859 58.5969 82.0073 58.8713 80.5729H49.5833V115.963C49.5833 118.424 51.5755 120.417 54.037 120.417H115.972C117.152 120.414 118.282 119.944 119.115 119.109C119.949 118.274 120.417 117.143 120.417 115.963V80.5729H111.129C111.403 82.0073 111.562 83.4859 111.562 85V85ZM85 102.708C87.3261 102.708 89.6293 102.249 91.778 101.358C93.9268 100.468 95.8791 99.1624 97.5235 97.5173C99.1679 95.8721 100.472 93.9191 101.362 91.7699C102.251 89.6206 102.709 87.3172 102.708 84.9911C102.708 82.6651 102.249 80.3619 101.358 78.2131C100.468 76.0643 99.1624 74.112 97.5173 72.4676C95.8721 70.8233 93.9191 69.519 91.7699 68.6294C89.6206 67.7398 87.3172 67.2822 84.9911 67.2828C80.2934 67.284 75.7886 69.1513 72.4676 72.4739C69.1467 75.7965 67.2816 80.3023 67.2828 85C67.284 89.6977 69.1513 94.2026 72.4739 97.5235C75.7965 100.844 80.3023 102.71 85 102.708V102.708ZM106.25 66.4062H116.866C117.571 66.4062 118.248 66.1267 118.748 65.6288C119.247 65.1309 119.529 64.4553 119.531 63.75V53.1338C119.531 52.427 119.25 51.7491 118.751 51.2493C118.251 50.7495 117.573 50.4687 116.866 50.4687H106.25C105.543 50.4687 104.865 50.7495 104.365 51.2493C103.866 51.7491 103.585 52.427 103.585 53.1338V63.75C103.594 65.2109 104.789 66.4062 106.25 66.4062V66.4062ZM85 0C62.4566 0 40.8365 8.95533 24.8959 24.8959C8.95533 40.8365 0 62.4566 0 85C0 107.543 8.95533 129.163 24.8959 145.104C40.8365 161.045 62.4566 170 85 170C96.1624 170 107.215 167.801 117.528 163.53C127.841 159.258 137.211 152.997 145.104 145.104C152.997 137.211 159.258 127.841 163.53 117.528C167.801 107.215 170 96.1624 170 85C170 73.8376 167.801 62.7846 163.53 52.4719C159.258 42.1592 152.997 32.7889 145.104 24.8959C137.211 17.0029 127.841 10.7419 117.528 6.47024C107.215 2.19859 96.1624 0 85 0V0ZM129.271 119.434C129.271 124.844 124.844 129.271 119.434 129.271H50.5661C45.1562 129.271 40.7292 124.844 40.7292 119.434V50.5661C40.7292 45.1562 45.1562 40.7292 50.5661 40.7292H119.434C124.844 40.7292 129.271 45.1562 129.271 50.5661V119.434V119.434Z" fill="#1991EB"/>
</svg>
