<svg width="170" height="170" viewBox="0 0 170 170" fill="none" xmlns="http://www.w3.org/2000/svg">
<path d="M85 0C38.0552 0 0 38.0552 0 85C0 131.945 38.0552 170 85 170C131.945 170 170 131.945 170 85C170 38.0552 131.945 0 85 0ZM64.1927 120.231H46.9802V64.8391H64.1927V120.231ZM55.4802 58.0391C50.0437 58.0391 46.5286 54.1875 46.5286 49.424C46.5286 44.563 50.15 40.8266 55.7016 40.8266C61.2531 40.8266 64.6531 44.563 64.7594 49.424C64.7594 54.1875 61.2531 58.0391 55.4802 58.0391ZM127.057 120.231H109.845V89.5333C109.845 82.388 107.348 77.5359 101.123 77.5359C96.3687 77.5359 93.5443 80.8208 92.2958 83.9818C91.8354 85.1062 91.7203 86.7 91.7203 88.2849V120.222H74.499V82.5031C74.499 75.588 74.2776 69.8062 74.0474 64.8302H89.0021L89.7901 72.5245H90.1354C92.4021 68.912 97.9536 63.5818 107.242 63.5818C118.566 63.5818 127.057 71.1698 127.057 87.4792V120.231V120.231Z" fill="#1991EB"/>
</svg>
