<svg width="177" height="149" viewBox="0 0 177 149" fill="none" xmlns="http://www.w3.org/2000/svg">
<path d="M163.763 34.3579C137.286 -0.00113579 83.2285 -10.216 41.3065 11.1423C0.487763 32.5007 -12.7508 78.9318 13.7263 113.291L15.9327 116.077L7.10702 143.935L40.2033 136.506L43.513 138.364C57.8547 144.864 73.2996 148.579 88.7446 148.579C105.293 148.579 121.841 144.864 136.183 137.435C177.001 115.148 189.137 69.6456 163.763 34.3579V34.3579ZM140.595 105.862C136.183 111.434 130.667 115.148 122.944 116.077C118.531 116.077 113.015 117.934 90.951 110.505C72.1964 103.076 56.7515 91.0039 45.7194 77.0746C39.1001 70.5742 35.7905 62.2166 34.6873 53.859C34.6873 46.43 37.9969 39.9297 43.513 35.2865C45.7194 33.4293 47.9258 32.5007 50.1322 32.5007H55.6483C57.8547 32.5007 60.0611 32.5007 61.1643 36.2152C63.3707 40.8583 68.8868 52.0018 68.8868 52.9304C69.99 53.859 69.99 55.7163 68.8868 56.6449C69.99 58.5021 68.8868 60.3594 67.7836 61.288C66.6804 62.2166 65.5772 64.0739 64.4739 65.0025C62.2675 65.9311 61.1643 67.7883 62.2675 69.6456C66.6804 75.2173 72.1964 80.7891 77.7125 85.4322C84.3317 90.0753 90.951 93.7898 98.6734 96.5757C100.88 97.5043 103.086 97.5043 104.189 95.647C105.293 93.7898 110.809 89.1467 113.015 87.2894C115.222 85.4322 116.325 85.4322 118.531 86.3608L136.183 93.7898C138.389 94.7184 140.595 95.647 141.699 96.5757C142.802 99.3615 142.802 103.076 140.595 105.862V105.862Z" fill="#1991EB"/>
</svg>
