<svg width="170" height="170" viewBox="0 0 170 170" fill="none" xmlns="http://www.w3.org/2000/svg">
<path d="M157.286 39.3115C131.856 -0.00129954 79.937 -11.6889 39.6729 12.7488C0.468473 37.1865 -12.2465 90.3119 13.1834 129.625L15.3026 132.812L6.82596 164.687L38.6134 156.187L41.7921 158.312C55.5666 165.75 70.4008 170 85.2349 170C101.129 170 117.022 165.75 130.797 157.25C170.001 131.75 181.657 79.6868 157.286 39.3115V39.3115ZM135.035 121.125C130.797 127.5 125.499 131.75 118.082 132.812C113.844 132.812 108.546 134.937 87.354 126.437C69.3412 117.937 54.5071 104.124 43.9113 88.1869C37.5538 80.7493 34.375 71.1867 33.3155 61.6242C33.3155 53.1241 36.4942 45.6866 41.7921 40.374C43.9113 38.249 46.0304 37.1865 48.1496 37.1865H53.4475C55.5666 37.1865 57.6858 37.1865 58.7454 41.4365C60.8645 46.7491 66.1624 59.4992 66.1624 60.5617C67.222 61.6242 67.222 63.7492 66.1624 64.8117C67.222 66.9367 66.1624 69.0617 65.1029 70.1242C64.0433 71.1868 62.9837 73.3118 61.9241 74.3743C59.805 75.4368 58.7454 77.5618 59.805 79.6868C64.0433 86.0619 69.3412 92.4369 74.6391 97.7494C80.9966 103.062 87.354 107.312 94.7711 110.5C96.8903 111.562 99.0094 111.562 100.069 109.437C101.129 107.312 106.426 101.999 108.546 99.8745C110.665 97.7494 111.724 97.7495 113.844 98.812L130.797 107.312C132.916 108.375 135.035 109.437 136.095 110.5C137.154 113.687 137.154 117.937 135.035 121.125V121.125Z" fill="#1991EB"/>
</svg>
